<?xml version="1.0" encoding="UTF-8" standalone="no" ?>
<!DOCTYPE svg PUBLIC "-//W3C//DTD SVG 1.1//EN" "http://www.w3.org/Graphics/SVG/1.1/DTD/svg11.dtd">
<svg xmlns="http://www.w3.org/2000/svg" xmlns:xlink="http://www.w3.org/1999/xlink" version="1.1" width="1080" height="1080" viewBox="0 0 1080 1080" xml:space="preserve">
<desc>Created with Fabric.js 5.2.4</desc>
<defs>
</defs>
<rect x="0" y="0" width="100%" height="100%" fill="transparent"></rect>
<g transform="matrix(1 0 0 1 540 540)" id="11c16d89-4e18-4fb5-bbc6-c592d98899d5"  >
<rect style="stroke: none; stroke-width: 1; stroke-dasharray: none; stroke-linecap: butt; stroke-dashoffset: 0; stroke-linejoin: miter; stroke-miterlimit: 4; fill: rgb(255,255,255); fill-rule: nonzero; opacity: 1; visibility: hidden;" vector-effect="non-scaling-stroke"  x="-540" y="-540" rx="0" ry="0" width="1080" height="1080" />
</g>
<g transform="matrix(1 0 0 1 540 540)" id="be738d31-5bc7-43a9-8d9d-8141fe8f0dbd"  >
</g>
<g transform="matrix(20 0 0 20 540 540)"  >
<path style="stroke: rgb(116,116,116); stroke-opacity: 0.2; stroke-width: 1; stroke-dasharray: none; stroke-linecap: butt; stroke-dashoffset: 0; stroke-linejoin: miter; stroke-miterlimit: 4; fill: rgb(255,255,255); fill-opacity: 0.82; fill-rule: evenodd; opacity: 1;"  transform=" translate(-27, -27)" d="M 32.6568542 29 L 38.3106978 23.3461564 C 39.8771021 21.7797521 39.8758057 19.2483887 38.3137085 17.6862915 C 36.7547899 16.1273729 34.2176035 16.1255422 32.6538436 17.6893022 L 27 23.3431458 L 21.3461564 17.6893022 C 19.7823965 16.1255422 17.2452101 16.1273729 15.6862915 17.6862915 C 14.1241943 19.2483887 14.1228979 21.7797521 15.6893022 23.3461564 L 21.3431458 29 L 15.6893022 34.6538436 C 14.1228979 36.2202479 14.1241943 38.7516113 15.6862915 40.3137085 C 17.2452101 41.8726271 19.7823965 41.8744578 21.3461564 40.3106978 L 27 34.6568542 L 32.6538436 40.3106978 C 34.2176035 41.8744578 36.7547899 41.8726271 38.3137085 40.3137085 C 39.8758057 38.7516113 39.8771021 36.2202479 38.3106978 34.6538436 L 32.6568542 29 Z M 27 53 C 41.3594035 53 53 41.3594035 53 27 C 53 12.6405965 41.3594035 1 27 1 C 12.6405965 1 1 12.6405965 1 27 C 1 41.3594035 12.6405965 53 27 53 Z" stroke-linecap="round" />
</g>
</svg>